<?xml version="1.0" standalone="no"?>
<!DOCTYPE svg PUBLIC "-//W3C//DTD SVG 20010904//EN"
 "http://www.w3.org/TR/2001/REC-SVG-20010904/DTD/svg10.dtd">
<svg version="1.0" xmlns="http://www.w3.org/2000/svg"
 width="700.000000pt" height="700.000000pt" viewBox="0 0 700.000000 700.000000"
 preserveAspectRatio="xMidYMid meet">
<metadata>
Created by potrace 1.11, written by Peter Selinger 2001-2013
</metadata>
<g transform="translate(0.000000,700.000000) scale(0.100000,-0.100000)"
fill="#000000" stroke="none">
<path d="M515 6984 c-186 -40 -359 -174 -442 -344 -79 -161 -73 103 -73 -3140
0 -3243 -6 -2979 73 -3140 58 -119 168 -229 287 -287 161 -79 -103 -73 3140
-73 3243 0 2979 -6 3140 73 153 75 273 217 332 392 l23 70 3 2930 c3 3281 9
3013 -71 3175 -58 120 -169 231 -288 288 -162 78 102 72 -3146 71 -2526 -1
-2917 -3 -2978 -15z m1160 -764 c67 -133 92 -172 535 -835 224 -335 444 -673
490 -750 l82 -140 -7 65 c-4 36 -11 418 -15 850 -5 432 -13 811 -17 843 l-9
57 369 0 369 0 -6 -43 c-19 -128 -25 -460 -26 -1382 0 -915 7 -1272 26 -1402
l6 -43 -381 0 -381 0 -36 73 c-56 110 -163 278 -511 802 -389 585 -442 667
-527 820 l-68 120 7 -60 c3 -33 10 -413 14 -845 5 -432 11 -794 14 -805 3 -11
8 -39 10 -62 l5 -43 -370 0 c-347 0 -369 1 -364 18 19 59 26 453 26 1417 0
963 -7 1316 -26 1408 l-6 27 376 0 376 0 45 -90z m4425 -3021 l0 -321 -37 7
c-21 3 -338 9 -705 12 l-668 5 0 -252 0 -252 603 5 c331 2 614 8 630 12 l27 7
0 -322 0 -322 -32 7 c-18 4 -302 9 -630 12 l-598 5 0 -291 0 -291 508 0 c462
0 880 12 925 26 16 5 17 -15 17 -322 l0 -326 -32 6 c-100 21 -1181 31 -1836
17 l-293 -6 8 85 c11 112 10 2599 0 2715 l-8 90 888 -3 c488 -1 942 1 1008 6
66 5 144 10 173 11 l52 1 0 -321z"/>
</g>
</svg>
