<?xml version="1.0" standalone="no"?>
<!DOCTYPE svg PUBLIC "-//W3C//DTD SVG 20010904//EN"
 "http://www.w3.org/TR/2001/REC-SVG-20010904/DTD/svg10.dtd">
<svg version="1.0" xmlns="http://www.w3.org/2000/svg"
 width="700.000000pt" height="700.000000pt" viewBox="0 0 700.000000 700.000000"
 preserveAspectRatio="xMidYMid meet">
<metadata>
Created by potrace 1.11, written by Peter Selinger 2001-2013
</metadata>
<g transform="translate(0.000000,700.000000) scale(0.100000,-0.100000)"
fill="#000000" stroke="none">
<path d="M515 6984 c-186 -40 -359 -174 -442 -344 -79 -161 -73 103 -73 -3140
0 -3243 -6 -2979 73 -3140 58 -119 168 -229 287 -287 161 -79 -103 -73 3140
-73 3243 0 2979 -6 3140 73 153 75 273 217 332 392 l23 70 3 2930 c3 3281 9
3013 -71 3175 -58 120 -169 231 -288 288 -162 78 102 72 -3146 71 -2526 -1
-2917 -3 -2978 -15z m1664 -1739 l536 -1011 3 1013 2 1013 365 0 365 0 0
-1485 0 -1485 -431 2 -431 3 -537 1011 -536 1012 -3 -1014 -2 -1014 -365 0
-365 0 0 1485 0 1485 432 -2 432 -3 535 -1010z m3911 -1825 l0 -290 -650 0
-650 0 0 -280 0 -280 610 0 610 0 0 -290 0 -290 -610 0 -610 0 0 -340 0 -340
675 0 675 0 -2 -287 -3 -288 -1057 -3 -1058 -2 0 1490 0 1490 1035 0 1035 0 0
-290z"/>
</g>
</svg>
